<?xml version="1.0" encoding="utf-8"?>
<!-- Generator: Adobe Illustrator 25.2.1, SVG Export Plug-In . SVG Version: 6.00 Build 0)  -->
<svg version="1.1" id="_圖層_1" xmlns="http://www.w3.org/2000/svg" xmlns:xlink="http://www.w3.org/1999/xlink" x="0px" y="0px"
	 viewBox="0 0 1600 827.2" style="enable-background:new 0 0 1600 827.2;" xml:space="preserve" fill="#4B2E2A">
<path d="M338.9,314.1c6.9-1.6,15.1-0.9,21.9,1.1c97.2,37.6,197.1,68,294.5,104.8c5.3,2,29.4,9.8,28.3,15
	c-0.6,2.5-30.4,33.6-36.3,33.8c-73.2-25.3-147-49.6-220-75.7c-17.7-6.3-87.9-28.8-97.2-37.5C318.4,344.8,322.6,317.8,338.9,314.1
	L338.9,314.1z"/>
<path d="M713.9,271.2c22.2,23.5,56.8,69.3,80.3,87c4.7,3.5,8.6,7.4,15.2,5.6l186.9-193.4c20.4-12.7,46.2-44.7,71-44.7
	c23.3,0,40,20.7,33.7,43.6c-4.3,15.8-42,40.2-55.5,52.8c-56.1,52.4-106.8,110.8-159.9,166l394.4-133.6l14.2-0.7l2.5,12.4l-440,152
	c-4.4,3.2-1.6,19-2.9,25.9c-4.2,23-28.2,38-50,41.5C645.4,634.9,534,840,277,769.5c-337.9-92.6-342.9-592.6-2.9-688.6
	C481.2,22.5,587.1,137,713.9,271.2L713.9,271.2z M343.9,160.4C224.1,171,120.5,279.7,111.1,399.1C92.4,633.8,358.3,784.2,540.5,624
	c56.8-49.9,128-125.5,178-182.9c2.3-2.6,13.3-16,13-17.8l-153.7-164C514.6,191.8,439,151.9,343.9,160.4L343.9,160.4z M813.9,424.4
	c0-10.9-8.8-19.7-19.7-19.7c-10.9,0-19.7,8.8-19.7,19.7c0,10.9,8.8,19.7,19.7,19.7C805.1,444.1,813.9,435.3,813.9,424.4z"/>
<g>
	<circle cx="831.8" cy="266.1" r="25.6"/>
	<circle cx="1267.2" cy="60.3" r="25"/>
	<circle cx="1257.2" cy="772.5" r="25"/>
	<circle cx="1079.6" cy="71.5" r="24.9"/>
	<circle cx="1012" cy="730.9" r="24.9"/>
	<ellipse transform="matrix(0.1602 -0.9871 0.9871 0.1602 118.1772 1532.8394)" cx="959.9" cy="697" rx="24.9" ry="24.9"/>
	<circle cx="1327" cy="78.5" r="24.9"/>
	<path d="M1017.4,71.1c27.7-5.3,39.2,37,13.6,47.4C994.5,133.3,982.1,77.8,1017.4,71.1L1017.4,71.1z"/>
	<path d="M983.6,112.3c24.5,21.6-9.2,61.5-34.2,37.8C927.3,129.1,959.4,91,983.6,112.3L983.6,112.3z"/>
	<circle cx="1203.9" cy="52.9" r="24.9"/>
	<circle cx="1318.4" cy="754.6" r="24.9"/>
	<circle cx="1532.4" cy="537.1" r="24.9"/>
	<circle cx="1140.8" cy="56.6" r="24.8"/>
	<path d="M914,148.1c26.7-4.7,41.8,32.3,17.2,46.3C896,214.3,878.9,154.2,914,148.1z"/>
	<circle cx="1550.1" cy="355.4" r="24.8"/>
	<circle cx="830.3" cy="563.8" r="24.9"/>
	<circle cx="912.5" cy="656.4" r="24.8"/>
	<circle cx="1475" cy="188.6" r="24.8"/>
	<circle cx="1505.3" cy="593.2" r="24.8"/>
	<circle cx="1554.3" cy="416.3" r="24.8"/>
	<circle cx="1070.1" cy="757.3" r="24.7"/>
	<circle cx="873.6" cy="217.4" r="24.7"/>
	<circle cx="1433" cy="143.5" r="24.7"/>
	<circle cx="870.7" cy="611.6" r="24.7"/>
	<circle cx="1194.9" cy="778" r="24.7"/>
	<circle cx="1548.8" cy="477.7" r="24.7"/>
	<circle cx="1470" cy="644.5" r="24.6"/>
	<circle cx="1131" cy="773.4" r="24.6"/>
	<circle cx="1383.5" cy="106.4" r="24.5"/>
	<circle cx="1374.4" cy="726.3" r="24.5"/>
	<circle cx="1509.5" cy="239.3" r="24.6"/>
	<circle cx="1535" cy="295.7" r="24.5"/>
	<circle cx="1426" cy="689" r="24.4"/>
	<circle cx="1298.3" cy="696.6" r="20.6"/>
	<circle cx="1044.7" cy="678.8" r="20.7"/>
	<circle cx="1092.1" cy="700" r="20.6"/>
	<circle cx="1386.6" cy="641.9" r="20.5"/>
	<circle cx="1456.3" cy="269.5" r="20.6"/>
	<circle cx="1428.2" cy="227.4" r="20.5"/>
	<circle cx="1391.9" cy="190.3" r="20.5"/>
	<circle cx="1423.5" cy="604.4" r="20.4"/>
	<path d="M923.5,561.9c33.4-7.4,33.2,45.9,2.5,40C904.3,597.7,903.5,566.3,923.5,561.9z"/>
	<path d="M1127,699.2c15.5-18.4,49.8,6.4,31.7,28.1C1141.5,747.8,1110.5,718.8,1127,699.2z"/>
	<circle cx="1247.7" cy="712.2" r="20.4"/>
	<circle cx="1476.4" cy="316.6" r="20.3"/>
	<circle cx="1493.6" cy="416.2" r="20.3"/>
	<ellipse transform="matrix(0.1602 -0.9871 0.9871 0.1602 199.66 1469.347)" cx="963.3" cy="617.3" rx="20.3" ry="20.3"/>
	<circle cx="1488.5" cy="466.7" r="20.3"/>
	<circle cx="1453.3" cy="562.6" r="20.3"/>
	<circle cx="1489.5" cy="365.5" r="20.3"/>
	<circle cx="1001.6" cy="650.6" r="20.3"/>
	<circle cx="1305.5" cy="136.1" r="20.3"/>
	<circle cx="1345.3" cy="673.2" r="20.2"/>
	<circle cx="1196" cy="717" r="20.1"/>
	<circle cx="1474.7" cy="515.6" r="20.1"/>
	<circle cx="1256.3" cy="120.7" r="20.1"/>
	<circle cx="1350.4" cy="159.4" r="20"/>
	<circle cx="1205.5" cy="114.3" r="19.9"/>
	<circle cx="1155.2" cy="116.4" r="19.6"/>
	<circle cx="1438.8" cy="415.6" r="17.2"/>
	<circle cx="974.7" cy="549.7" r="17.2"/>
	<circle cx="1194.6" cy="662.2" r="17.2"/>
	<circle cx="917.7" cy="483.4" r="17.2"/>
	<circle cx="1203.6" cy="168.8" r="17.1"/>
	<circle cx="1381.2" cy="570.5" r="17"/>
	<circle cx="1405.2" cy="535.5" r="17"/>
	<circle cx="1036.6" cy="607.5" r="17.1"/>
	<circle cx="1278.8" cy="645.6" r="17"/>
	<circle cx="1244.5" cy="173.9" r="17.1"/>
	<circle cx="1434.5" cy="456.5" r="17"/>
	<path d="M1447.9,362.4c12.5,15.5-9.5,41.3-24.7,23.5C1406.5,366.4,1435.2,346.6,1447.9,362.4z"/>
	<circle cx="1316.5" cy="626.9" r="17"/>
	<circle cx="946.3" cy="516.5" r="17"/>
	<circle cx="1071.4" cy="631.6" r="16.9"/>
	<circle cx="1004.2" cy="580.5" r="16.9"/>
	<circle cx="1285.1" cy="186.8" r="16.9"/>
	<circle cx="1385.1" cy="262.5" r="16.9"/>
	<circle cx="1424.6" cy="334.5" r="16.9"/>
	<circle cx="1350.7" cy="600.4" r="16.9"/>
	<circle cx="1356.1" cy="231.8" r="16.8"/>
	<circle cx="1408" cy="296.4" r="16.8"/>
	<circle cx="1237.5" cy="657.6" r="16.8"/>
	<circle cx="1161.9" cy="171.1" r="16.7"/>
	<circle cx="1152.4" cy="659.5" r="16.7"/>
	<circle cx="1423.4" cy="496.7" r="16.7"/>
	<path d="M1335,219.2c-13.1,13.1-43.1-8.3-23.6-24.8C1331.2,177.5,1346.3,208,1335,219.2z"/>
	<circle cx="1111" cy="648.5" r="16.5"/>
</g>
</svg>
